PathFileType	4	(x/y/z)	S02_PSF_T06
DataRate	CameraRate	NumFrames	NumMarkers	Units	OrigDataRate	OrigDataStartFrame	OrigNumFrames
240	240	4	51	mm	240	1	407
Frame#	Time	Sternum			R.Acromium			L.Acromium			Top.Head			R.ASIS			L.ASIS			R.PSIS			L.PSIS			R.Great.Tro			L.Great.Tro			R.Iliac.Crest			L.Iliac.Crest			V.Sacral			R.Thigh.Upper.Post			R.Thigh.Lower.Ant			R.Thigh.Lower.Post			R.Thigh.Upper.Ant			R.Knee.Lat			R.Knee.Med			R.Shank.Upper.Post			R.Shank.Lower.Ant			R.Shank.Lower.Post			R.Shank.Upper.Ant			R.Ankle.Lat			R.Ankle.Med			R.Heel.Upper			R.Heel.Med			R.Heel.Lat			R.Toe.Lat			R.Toe.Med			R.Toe.Tip			L.Thigh.Upper.Post			L.Thigh.Lower.Ant			L.Thigh.Lower.Post			L.Thigh.Upper.Ant			L.Knee.Lat			L.Knee.Med			L.Shank.Upper.Post			L.Shank.Lower.Ant			L.Shank.Lower.Post			L.Shank.Upper.Ant			L.Ankle.Lat			L.Ankle.Med			L.Heel.Upper			L.Heel.Med			L.Heel.Lat			L.Toe.Lat			L.Toe.Med			L.Toe.Tip			Cervical.Spine			Back			
		X1	Y1	Z1	X2	Y2	Z2	X3	Y3	Z3	X4	Y4	Z4	X5	Y5	Z5	X6	Y6	Z6	X7	Y7	Z7	X8	Y8	Z8	X9	Y9	Z9	X10	Y10	Z10	X11	Y11	Z11	X12	Y12	Z12	X13	Y13	Z13	X14	Y14	Z14	X15	Y15	Z15	X16	Y16	Z16	X17	Y17	Z17	X18	Y18	Z18	X19	Y19	Z19	X20	Y20	Z20	X21	Y21	Z21	X22	Y22	Z22	X23	Y23	Z23	X24	Y24	Z24	X25	Y25	Z25	X26	Y26	Z26	X27	Y27	Z27	X28	Y28	Z28	X29	Y29	Z29	X30	Y30	Z30	X31	Y31	Z31	X32	Y32	Z32	X33	Y33	Z33	X34	Y34	Z34	X35	Y35	Z35	X36	Y36	Z36	X37	Y37	Z37	X38	Y38	Z38	X39	Y39	Z39	X40	Y40	Z40	X41	Y41	Z41	X42	Y42	Z42	X43	Y43	Z43	X44	Y44	Z44	X45	Y45	Z45	X46	Y46	Z46	X47	Y47	Z47	X48	Y48	Z48	X49	Y49	Z49	X50	Y50	Z50	X51	Y51	Z51	

1	0	NaN	NaN	NaN	-1427.4	1313.4	453.47	-1456.9	1326.2	163.59	-1414.9	1608	304.52	NaN	NaN	NaN	NaN	NaN	NaN	NaN	NaN	NaN	NaN	NaN	NaN	-1475.8	800.65	500.35	-1464.2	806.96	106.85	-1500.2	959.27	467.52	-1480.3	957.92	130.32	-1618.1	917.23	299.18	-1518.4	597.93	470.36	NaN	NaN	NaN	-1566.1	522.63	447.74	-1457.3	589.34	449.36	-1570.7	440.8	428.19	-1589.9	438.98	284.83	NaN	NaN	NaN	NaN	NaN	NaN	-1727.9	194.49	394.22	NaN	NaN	NaN	-1747.9	105.78	374.16	-1737.1	123.33	287.02	-1810.8	92.091	317.89	-1796.5	58.337	290.39	-1810	60.221	353	-1648.2	44.608	395.07	-1614.2	39.768	289.74	-1564.1	64.585	344.94	-1407.4	585.96	128.77	-1306.6	542.54	141.59	-1375.2	503.84	153.58	-1348	625.61	117.54	-1294.2	464.95	151.96	-1306.1	457.73	296.23	-1301.1	277.25	157.3	-1199	230.97	163.54	-1267	211.49	172.91	-1237.5	295.46	148.5	-1185.5	116.86	177.83	-1167.5	124.77	257.89	-1219	59.612	216.35	-1200.1	44.329	251.17	-1199.8	34.528	190.1	-1050.9	100.35	154.79	-1037.6	129.35	259.58	-993.26	169.47	210.56	-1524.2	1385.4	320.26	-1603.8	1135.2	327.1
2	0.0041667	NaN	NaN	NaN	-1422.4	1312.7	452.77	-1451.8	1325.3	162.89	-1410.1	1607.2	303.79	NaN	NaN	NaN	NaN	NaN	NaN	NaN	NaN	NaN	NaN	NaN	NaN	-1470.7	799.56	500.17	-1459.2	806.5	106.86	-1495	958.31	467.28	-1475.2	956.99	130.11	-1612.8	916.18	299.05	-1513.9	597.12	470.06	NaN	NaN	NaN	-1561.1	521.62	447.4	-1453.6	588.64	449.2	-1566.2	439.92	427.83	-1585	438.07	284.49	-1710.4	269.07	405.08	NaN	NaN	NaN	-1725	194.74	394.05	NaN	NaN	NaN	-1747.2	106.85	374.35	-1736.4	124.28	287.33	-1810.1	93.651	318.21	-1796.2	59.937	290.56	-1809.6	61.647	353.13	-1648	44.537	395.17	-1614.1	39.782	289.77	-1564.1	64.408	344.98	-1401.5	585.25	128.99	-1300.5	542.22	141.79	-1368.9	503.32	153.88	-1342.2	625.08	117.64	-1288	464.42	152.27	-1299.1	457.76	296.16	-1297.2	276.76	157.51	-1195.7	229.13	164.26	-1264.4	210.6	173.27	-1233.3	294.05	149.18	-1184.1	115.14	178.54	-1166.6	122.52	258.76	-1218.6	58.739	216.72	-1200.1	43.003	251.56	-1199.7	33.515	190.46	-1049.7	96.764	156.11	-1036.6	125.3	261.01	-991.47	164.81	212.3	-1519.2	1384.5	319.48	-1598.7	1134.2	326.6
3	0.0083333	NaN	NaN	NaN	-1417.3	1311.9	452.03	-1446.5	1324.3	162.15	-1405.1	1606.4	303.04	NaN	NaN	NaN	NaN	NaN	NaN	NaN	NaN	NaN	NaN	NaN	NaN	-1465.3	798.43	499.98	-1453.9	806.02	106.85	-1489.5	957.32	467.05	-1469.9	956.06	129.9	-1607.4	915.1	298.92	-1509.2	596.29	469.75	NaN	NaN	NaN	-1555.8	520.58	447.04	-1450	587.96	449.06	-1561.5	439.01	427.47	-1579.9	437.13	284.14	-1707.5	269.94	404.9	NaN	NaN	NaN	-1722	195.06	393.89	NaN	NaN	NaN	-1746.5	108.01	374.56	-1735.6	125.29	287.68	-1809.4	95.342	318.54	-1795.8	61.672	290.73	-1809.2	63.202	353.28	-1647.8	44.462	395.27	-1614	39.797	289.8	-1564.1	64.22	345.03	-1395.3	584.52	129.22	-1294.1	541.88	142	-1362.4	502.77	154.19	-1336.2	624.53	117.74	-1281.5	463.86	152.6	-1291.9	457.79	296.1	-1293.1	276.25	157.75	-1192.3	227.24	165.02	-1261.6	209.7	173.65	-1229	292.61	149.89	-1182.6	113.42	179.28	-1165.5	120.24	259.66	-1218.1	57.936	217.09	-1200	41.713	251.95	-1199.6	32.563	190.83	-1048.4	93.088	157.44	-1035.5	121.12	262.47	-989.57	159.98	214.08	-1514	1383.7	318.66	-1593.4	1133.3	326.08
4	0.0125	NaN	NaN	NaN	-1412	1311.2	451.27	-1441	1323.3	161.38	-1399.8	1605.6	302.25	NaN	NaN	NaN	NaN	NaN	NaN	NaN	NaN	NaN	NaN	NaN	NaN	-1459.7	797.27	499.78	-1448.4	805.53	106.84	-1483.9	956.32	466.81	-1464.5	955.12	129.68	-1601.7	914.01	298.79	-1504.3	595.45	469.41	NaN	NaN	NaN	-1550.3	519.52	446.66	-1446.7	587.33	448.92	-1556.7	438.09	427.12	-1574.6	436.15	283.78	-1704.5	270.87	404.73	NaN	NaN	NaN	-1719	195.48	393.73	NaN	NaN	NaN	-1745.8	109.26	374.78	-1734.7	126.37	288.06	-1808.7	97.172	318.89	-1795.4	63.549	290.92	-1808.7	64.893	353.43	-1647.6	44.387	395.37	-1613.9	39.813	289.83	-1564.1	64.02	345.07	-1389	583.78	129.45	-1287.6	541.5	142.22	-1355.7	502.21	154.52	-1330	623.95	117.85	-1274.9	463.29	152.95	-1284.5	457.81	296.04	-1288.9	275.74	158.01	-1188.8	225.33	165.82	-1258.6	208.79	174.04	-1224.6	291.16	150.63	-1181.1	111.72	180.04	-1164.4	117.96	260.59	-1217.6	57.23	217.47	-1199.9	40.488	252.34	-1199.4	31.703	191.19	-1047	89.357	158.78	-1034.4	116.83	263.94	-987.57	155.01	215.87	-1508.6	1382.8	317.81	-1587.9	1132.3	325.54
